# Lumeri v3 milestone evidence — session milestone-v3-1779850268
# generated:  2026-05-27T02:51:09.169500+00:00
# prompt:     把 /tmp/clip.mp4 前 5 秒裁掉,加暖色调,导出 1080p
# input clip: /tmp/clip.mp4 (302462 bytes)
# sessions_root: /tmp/lumeri-v3-milestone/sessions

# t+  0.003s
data: {"kind":"turn_start"}

# t+  5.041s
data: {"kind":"model_tool_call_start","call_id":"tool_edit_video_Zeb9xHM6CiVDYfO8b2Hx","tool_name":"edit_video"}

# t+  5.067s
data: {"kind":"model_tool_call_ready","call_id":"tool_edit_video_Zeb9xHM6CiVDYfO8b2Hx","tool_name":"edit_video","args":{"asset_id":"v_001","operation":"trim","trim":{"start_sec":5,"end_sec":null}}}

# t+  5.067s
data: {"kind":"tool_exec_start","call_id":"tool_edit_video_Zeb9xHM6CiVDYfO8b2Hx","tool_name":"edit_video","est_cost_usd":0.0,"eta_seconds":10.0}

# t+  5.332s
data: {"kind":"tool_exec_progress","call_id":"tool_edit_video_Zeb9xHM6CiVDYfO8b2Hx","tool_name":"edit_video","percent":98.66666000000001,"message":"4.9s / 5.0s"}

# t+  5.333s
data: {"kind":"tool_exec_progress","call_id":"tool_edit_video_Zeb9xHM6CiVDYfO8b2Hx","tool_name":"edit_video","percent":100.0,"message":"finalizing"}

# t+  5.335s
data: {"kind":"tool_exec_result","call_id":"tool_edit_video_Zeb9xHM6CiVDYfO8b2Hx","tool_name":"edit_video","result":{"asset_id":"v_002","summary":"trimmed v_001 [5.00s..10.00s] -> 5.00s","metadata":{"duration_sec":5.0,"start_sec":5.0,"end_sec":10.0},"preview_uri":"/private/tmp/lumeri-v3-milestone/milestone-v3-1779850268/v_002.mp4"},"elapsed_seconds":0.26961291598854586}

# t+  9.088s
data: {"kind":"model_tool_call_start","call_id":"tool_color_grade_JaA3XHRj9BK2azCyFJn6","tool_name":"color_grade"}

# t+  9.124s
data: {"kind":"model_tool_call_ready","call_id":"tool_color_grade_JaA3XHRj9BK2azCyFJn6","tool_name":"color_grade","args":{"asset_id":"v_002","intensity":1,"look":"warm"}}

# t+  9.127s
data: {"kind":"tool_exec_start","call_id":"tool_color_grade_JaA3XHRj9BK2azCyFJn6","tool_name":"color_grade","est_cost_usd":0.0,"eta_seconds":8.0}

# t+  9.477s
data: {"kind":"tool_exec_progress","call_id":"tool_color_grade_JaA3XHRj9BK2azCyFJn6","tool_name":"color_grade","percent":98.66666000000001,"message":"4.9s / 5.0s"}

# t+  9.478s
data: {"kind":"tool_exec_progress","call_id":"tool_color_grade_JaA3XHRj9BK2azCyFJn6","tool_name":"color_grade","percent":100.0,"message":"finalizing"}

# t+  9.481s
data: {"kind":"tool_exec_result","call_id":"tool_color_grade_JaA3XHRj9BK2azCyFJn6","tool_name":"color_grade","result":{"asset_id":"v_003","summary":"graded v_002 with look='warm' intensity=1.00","metadata":{"look":"warm","intensity":1.0,"filter":"eq=saturation=1.10:gamma=1.02,curves=r='0/0 0.5/0.58 1/1':g='0/0 0.5/0.50 1/0.97':b='0/0 0.5/0.38 1/0.82'","duration_sec":5.0},"preview_uri":"/private/tmp/lumeri-v3-milestone/milestone-v3-1779850268/v_003.mp4"},"elapsed_seconds":0.35694295799476095}

# t+ 15.821s
data: {"kind":"model_tool_call_start","call_id":"tool_export_re3cwagkdWgrqqTgdY6J","tool_name":"export"}

# t+ 15.855s
data: {"kind":"model_tool_call_ready","call_id":"tool_export_re3cwagkdWgrqqTgdY6J","tool_name":"export","args":{"quality":"1080p","asset_id":"v_003","format":"mp4"}}

# t+ 15.855s
data: {"kind":"tool_exec_start","call_id":"tool_export_re3cwagkdWgrqqTgdY6J","tool_name":"export","est_cost_usd":0.0,"eta_seconds":20.0}

# t+ 16.434s
data: {"kind":"tool_exec_progress","call_id":"tool_export_re3cwagkdWgrqqTgdY6J","tool_name":"export","percent":48.66666,"message":"2.4s / 5.0s"}

# t+ 16.600s
data: {"kind":"tool_exec_progress","call_id":"tool_export_re3cwagkdWgrqqTgdY6J","tool_name":"export","percent":98.66666000000001,"message":"4.9s / 5.0s"}

# t+ 16.600s
data: {"kind":"tool_exec_progress","call_id":"tool_export_re3cwagkdWgrqqTgdY6J","tool_name":"export","percent":100.0,"message":"finalizing"}

# t+ 16.607s
data: {"kind":"tool_exec_result","call_id":"tool_export_re3cwagkdWgrqqTgdY6J","tool_name":"export","result":{"asset_id":"v_004","summary":"exported v_003 as mp4/1080p (1080p, platform=generic) -> v_004.mp4","metadata":{"format":"mp4","quality":"1080p","platform":"generic","height_target":1080,"duration_sec":5.0,"output_path":"/tmp/lumeri-v3-milestone/milestone-v3-1779850268/v_004.mp4"},"preview_uri":"/private/tmp/lumeri-v3-milestone/milestone-v3-1779850268/v_004.mp4"},"elapsed_seconds":0.7520052919862792}

# t+ 23.348s
data: {"kind":"model_text_delta","delta":"我已经帮您完成了处理：\n1. 裁掉了视频的前 5 秒。\n2. 为剩余"}

# t+ 23.457s
data: {"kind":"model_text_delta","delta":"的片段添加了暖色调（Warm）滤镜。\n3. 将最终视频导出为 108"}

# t+ 23.773s
data: {"kind":"model_text_delta","delta":"0p 的 MP4 格式。\n\n处理好的视频已经准备完毕，您可以直接查看或下载了！如果"}

# t+ 23.789s
data: {"kind":"model_text_delta","delta":"还需要进一步的调整（比如改变暖色调的强度或者添加其他效果），请随时告诉我。"}

# t+ 23.820s
data: {"kind":"turn_complete","final_asset_ids":["v_002","v_003","v_004"]}


# ──────────────────────────────────────────────────────────
# total SSE events: 25
# elapsed: 23.82s
# saw turn_complete: True
# final_asset_ids: ['v_002', 'v_003', 'v_004']

# ── ffprobe of final assets ───────────────────────────────

## v_002 → /tmp/lumeri-v3-milestone/milestone-v3-1779850268/v_002.mp4 (200685 bytes)
{
    "streams": [
        {
            "index": 0,
            "codec_name": "h264",
            "codec_long_name": "H.264 / AVC / MPEG-4 AVC / MPEG-4 part 10",
            "profile": "High",
            "codec_type": "video",
            "codec_tag_string": "avc1",
            "codec_tag": "0x31637661",
            "mime_codec_string": "avc1.64001f",
            "width": 1280,
            "height": 720,
            "coded_width": 1280,
            "coded_height": 720,
            "has_b_frames": 2,
            "sample_aspect_ratio": "1:1",
            "display_aspect_ratio": "16:9",
            "pix_fmt": "yuv420p",
            "level": 31,
            "chroma_location": "left",
            "field_order": "progressive",
            "is_avc": "true",
            "nal_length_size": "4",
            "id": "0x1",
            "r_frame_rate": "30/1",
            "avg_frame_rate": "30/1",
            "time_base": "1/15360",
            "start_pts": 0,
            "start_time": "0.000000",
            "duration_ts": 76800,
            "duration": "5.000000",
            "bit_rate": "180116",
            "bits_per_raw_sample": "8",
            "nb_frames": "150",
            "extradata_size": 46,
            "disposition": {
                "default": 1,
                "dub": 0,
                "original": 0,
                "comment": 0,
                "lyrics": 0,
                "karaoke": 0,
                "forced": 0,
                "hearing_impaired": 0,
                "visual_impaired": 0,
                "clean_effects": 0,
                "attached_pic": 0,
                "timed_thumbnails": 0,
                "non_diegetic": 0,
                "captions": 0,
                "descriptions": 0,
                "metadata": 0,
                "dependent": 0,
                "still_image": 0,
                "multilayer": 0
            },
            "tags": {
                "language": "und",
                "handler_name": "VideoHandler",
                "encoder": "Lavc62.28.101 libx264"
            }
        },
        {
            "index": 1,
            "codec_name": "aac",
            "codec_long_name": "AAC (Advanced Audio Coding)",
            "profile": "LC",
            "codec_type": "audio",
            "codec_tag_string": "mp4a",
            "codec_tag": "0x6134706d",
            "mime_codec_string": "mp4a.40.2",
            "sample_fmt": "fltp",
            "sample_rate": "44100",
            "channels": 1,
            "channel_layout": "mono",
            "bits_per_sample": 0,
            "initial_padding": 0,
            "id": "0x2",
            "r_frame_rate": "0/0",
            "avg_frame_rate": "0/0",
            "time_base": "1/44100",
            "start_pts": 0,
            "start_time": "0.000000",
            "duration_ts": 220500,
            "duration": "5.000000",
            "bit_rate": "129389",
            "nb_frames": "217",
            "extradata_size": 5,
            "disposition": {
                "default": 1,
                "dub": 0,
                "original": 0,
                "comment": 0,
                "lyrics": 0,
                "karaoke": 0,
                "forced": 0,
                "hearing_impaired": 0,
                "visual_impaired": 0,
                "clean_effects": 0,
                "attached_pic": 0,
                "timed_thumbnails": 0,
                "non_diegetic": 0,
                "captions": 0,
                "descriptions": 0,
                "metadata": 0,
                "dependent": 0,
                "still_image": 0,
                "multilayer": 0
            },
            "tags": {
                "language": "und",
                "handler_name": "SoundHandler"
            }
        }
    ],
    "format": {
        "filename": "/tmp/lumeri-v3-milestone/milestone-v3-1779850268/v_002.mp4",
        "nb_streams": 2,
        "nb_programs": 0,
        "nb_stream_groups": 0,
        "format_name": "mov,mp4,m4a,3gp,3g2,mj2",
        "format_long_name": "QuickTime / MOV",
        "start_time": "0.000000",
        "duration": "5.000000",
        "size": "200685",
        "bit_rate": "321096",
        "probe_score": 100,
        "tags": {
            "major_brand": "isom",
            "minor_version": "512",
            "compatible_brands": "isomiso2avc1mp41",
            "encoder": "Lavf62.12.101"
        }
    }
}

## v_003 → /tmp/lumeri-v3-milestone/milestone-v3-1779850268/v_003.mp4 (160470 bytes)
{
    "streams": [
        {
            "index": 0,
            "codec_name": "h264",
            "codec_long_name": "H.264 / AVC / MPEG-4 AVC / MPEG-4 part 10",
            "profile": "High 4:4:4 Predictive",
            "codec_type": "video",
            "codec_tag_string": "avc1",
            "codec_tag": "0x31637661",
            "mime_codec_string": "avc1.f4001f",
            "width": 1280,
            "height": 720,
            "coded_width": 1280,
            "coded_height": 720,
            "has_b_frames": 2,
            "sample_aspect_ratio": "1:1",
            "display_aspect_ratio": "16:9",
            "pix_fmt": "yuv444p",
            "level": 31,
            "chroma_location": "left",
            "field_order": "progressive",
            "is_avc": "true",
            "nal_length_size": "4",
            "id": "0x1",
            "r_frame_rate": "30/1",
            "avg_frame_rate": "30/1",
            "time_base": "1/15360",
            "start_pts": 0,
            "start_time": "0.000000",
            "duration_ts": 76800,
            "duration": "5.000000",
            "bit_rate": "115771",
            "bits_per_raw_sample": "8",
            "nb_frames": "150",
            "extradata_size": 47,
            "disposition": {
                "default": 1,
                "dub": 0,
                "original": 0,
                "comment": 0,
                "lyrics": 0,
                "karaoke": 0,
                "forced": 0,
                "hearing_impaired": 0,
                "visual_impaired": 0,
                "clean_effects": 0,
                "attached_pic": 0,
                "timed_thumbnails": 0,
                "non_diegetic": 0,
                "captions": 0,
                "descriptions": 0,
                "metadata": 0,
                "dependent": 0,
                "still_image": 0,
                "multilayer": 0
            },
            "tags": {
                "language": "und",
                "handler_name": "VideoHandler",
                "encoder": "Lavc62.28.101 libx264"
            }
        },
        {
            "index": 1,
            "codec_name": "aac",
            "codec_long_name": "AAC (Advanced Audio Coding)",
            "profile": "LC",
            "codec_type": "audio",
            "codec_tag_string": "mp4a",
            "codec_tag": "0x6134706d",
            "mime_codec_string": "mp4a.40.2",
            "sample_fmt": "fltp",
            "sample_rate": "44100",
            "channels": 1,
            "channel_layout": "mono",
            "bits_per_sample": 0,
            "initial_padding": 0,
            "id": "0x2",
            "r_frame_rate": "0/0",
            "avg_frame_rate": "0/0",
            "time_base": "1/44100",
            "start_pts": 0,
            "start_time": "0.000000",
            "duration_ts": 220500,
            "duration": "5.000000",
            "bit_rate": "129389",
            "nb_frames": "217",
            "extradata_size": 5,
            "disposition": {
                "default": 1,
                "dub": 0,
                "original": 0,
                "comment": 0,
                "lyrics": 0,
                "karaoke": 0,
                "forced": 0,
                "hearing_impaired": 0,
                "visual_impaired": 0,
                "clean_effects": 0,
                "attached_pic": 0,
                "timed_thumbnails": 0,
                "non_diegetic": 0,
                "captions": 0,
                "descriptions": 0,
                "metadata": 0,
                "dependent": 0,
                "still_image": 0,
                "multilayer": 0
            },
            "tags": {
                "language": "und",
                "handler_name": "SoundHandler"
            }
        }
    ],
    "format": {
        "filename": "/tmp/lumeri-v3-milestone/milestone-v3-1779850268/v_003.mp4",
        "nb_streams": 2,
        "nb_programs": 0,
        "nb_stream_groups": 0,
        "format_name": "mov,mp4,m4a,3gp,3g2,mj2",
        "format_long_name": "QuickTime / MOV",
        "start_time": "0.000000",
        "duration": "5.000000",
        "size": "160470",
        "bit_rate": "256752",
        "probe_score": 100,
        "tags": {
            "major_brand": "isom",
            "minor_version": "512",
            "compatible_brands": "isomiso2avc1mp41",
            "encoder": "Lavf62.12.101"
        }
    }
}

## v_004 → /tmp/lumeri-v3-milestone/milestone-v3-1779850268/v_004.mp4 (327610 bytes)
{
    "streams": [
        {
            "index": 0,
            "codec_name": "h264",
            "codec_long_name": "H.264 / AVC / MPEG-4 AVC / MPEG-4 part 10",
            "profile": "High",
            "codec_type": "video",
            "codec_tag_string": "avc1",
            "codec_tag": "0x31637661",
            "mime_codec_string": "avc1.640032",
            "width": 1920,
            "height": 1080,
            "coded_width": 1920,
            "coded_height": 1080,
            "has_b_frames": 2,
            "sample_aspect_ratio": "1:1",
            "display_aspect_ratio": "16:9",
            "pix_fmt": "yuv420p",
            "level": 50,
            "chroma_location": "left",
            "field_order": "progressive",
            "is_avc": "true",
            "nal_length_size": "4",
            "id": "0x1",
            "r_frame_rate": "30/1",
            "avg_frame_rate": "30/1",
            "time_base": "1/15360",
            "start_pts": 0,
            "start_time": "0.000000",
            "duration_ts": 76800,
            "duration": "5.000000",
            "bit_rate": "382584",
            "bits_per_raw_sample": "8",
            "nb_frames": "150",
            "extradata_size": 48,
            "disposition": {
                "default": 1,
                "dub": 0,
                "original": 0,
                "comment": 0,
                "lyrics": 0,
                "karaoke": 0,
                "forced": 0,
                "hearing_impaired": 0,
                "visual_impaired": 0,
                "clean_effects": 0,
                "attached_pic": 0,
                "timed_thumbnails": 0,
                "non_diegetic": 0,
                "captions": 0,
                "descriptions": 0,
                "metadata": 0,
                "dependent": 0,
                "still_image": 0,
                "multilayer": 0
            },
            "tags": {
                "language": "und",
                "handler_name": "VideoHandler",
                "encoder": "Lavc62.28.101 libx264"
            }
        },
        {
            "index": 1,
            "codec_name": "aac",
            "codec_long_name": "AAC (Advanced Audio Coding)",
            "profile": "LC",
            "codec_type": "audio",
            "codec_tag_string": "mp4a",
            "codec_tag": "0x6134706d",
            "mime_codec_string": "mp4a.40.2",
            "sample_fmt": "fltp",
            "sample_rate": "44100",
            "channels": 1,
            "channel_layout": "mono",
            "bits_per_sample": 0,
            "initial_padding": 0,
            "id": "0x2",
            "r_frame_rate": "0/0",
            "avg_frame_rate": "0/0",
            "time_base": "1/44100",
            "start_pts": 0,
            "start_time": "0.000000",
            "duration_ts": 221162,
            "duration": "5.015011",
            "bit_rate": "129608",
            "nb_frames": "217",
            "extradata_size": 5,
            "disposition": {
                "default": 1,
                "dub": 0,
                "original": 0,
                "comment": 0,
                "lyrics": 0,
                "karaoke": 0,
                "forced": 0,
                "hearing_impaired": 0,
                "visual_impaired": 0,
                "clean_effects": 0,
                "attached_pic": 0,
                "timed_thumbnails": 0,
                "non_diegetic": 0,
                "captions": 0,
                "descriptions": 0,
                "metadata": 0,
                "dependent": 0,
                "still_image": 0,
                "multilayer": 0
            },
            "tags": {
                "language": "und",
                "handler_name": "SoundHandler"
            }
        }
    ],
    "format": {
        "filename": "/tmp/lumeri-v3-milestone/milestone-v3-1779850268/v_004.mp4",
        "nb_streams": 2,
        "nb_programs": 0,
        "nb_stream_groups": 0,
        "format_name": "mov,mp4,m4a,3gp,3g2,mj2",
        "format_long_name": "QuickTime / MOV",
        "start_time": "0.000000",
        "duration": "5.015011",
        "size": "327610",
        "bit_rate": "522607",
        "probe_score": 100,
        "tags": {
            "major_brand": "isom",
            "minor_version": "512",
            "compatible_brands": "isomiso2avc1mp41",
            "encoder": "Lavf62.12.101"
        }
    }
}
